999
FreeCAD v26.3 20260714 (Git shallow)
  0
SECTION
  2
HEADER
  9
$ACADVER
  1
AC1014
  9
$ACADMAINTVER
 70
     9
  9
$DWGCODEPAGE
  3
ANSI_1252
  9
$TEXTSTYLE
  7
STANDARD
  9
$DIMSTYLE
  2
STANDARD
  9
$DIMTXSTY
  7
STANDARD
  9
$CMLSTYLE
  2
STANDARD
  9
$LUNITS
 70
2
  9
$INSUNITS
 70
4
  9
$PEXTMAX
 10
50
 20
50
 30
50
  9
$PEXTMIN
 10
0
 20
0
 30
0
  9
$HANDSEED
  5
FFFF
  0
ENDSEC
  0
SECTION
  2
CLASSES
  0
CLASS
  1
ACDBDICTIONARYWDFLT
  2
AcDbDictionaryWithDefault
  3
ObjectDBX Classes
 90
        0
280
     0
281
     0
  0
CLASS
  1
XRECORD
  2
AcDbXrecord
  3
ObjectDBX Classes
 90
        0
280
     0
281
     0
  0
CLASS
  1
LWPOLYLINE
  2
AcDbPolyline
  3
ObjectDBX Classes
 90
        0
280
     0
281
     1
  0
ENDSEC
  0
SECTION
  2
TABLES
  0
TABLE
  2
VPORT
  5
20
330
0
100
AcDbSymbolTable
 70
     1
  0
VPORT
  5
21
330
20
100
AcDbSymbolTableRecord
100
AcDbViewportTableRecord
  2
*ACTIVE
 70
     0
  0
ENDTAB
  0
TABLE
  2
LTYPE
  5
22
330
0
100
AcDbSymbolTable
 70
     1
  0
LTYPE
  5
23
330
21
100
AcDbSymbolTableRecord
100
AcDbLinetypeTableRecord
  2
BYBLOCK
 70
     0
  3

 72
    65
 73
     0
 40
0.0
  0
LTYPE
  5
24
330
21
100
AcDbSymbolTableRecord
100
AcDbLinetypeTableRecord
  2
BYLAYER
 70
     0
  3

 72
    65
 73
     0
 40
0.0
  0
LTYPE
  5
25
330
21
100
AcDbSymbolTableRecord
100
AcDbLinetypeTableRecord
  2
CONTINUOUS
 70
     0
  3
Solid line
 72
    65
 73
     0
 40
0.0
  0
ENDTAB
  0
TABLE
  2
LAYER
  5
ACC
330
0
100
AcDbSymbolTable
 70
2
  0
LAYER
  5
ACD
330
ACC
100
AcDbSymbolTableRecord
100
AcDbLayerTableRecord
  2
0
 70
   0
 62
   7
  6
CONTINUOUS
  0
LAYER
  5
ACE
330
ACC
100
AcDbSymbolTableRecord
100
AcDbLayerTableRecord
  2
View
 70
    0
 62
    7
  6
CONTINUOUS
  0
ENDTAB
  0
TABLE
  2
STYLE
  5
70
330
0
100
AcDbSymbolTable
 70
     2
  0
STYLE
  5
71
330
70
100
AcDbSymbolTableRecord
100
AcDbTextStyleTableRecord
  2
STANDARD
 70
     0
 40
0.0
 41
1.0
 50
0.0
 71
     0
 42
2.5
  3
arial.ttf
  4

  0
STYLE
  5
72
330
70
100
AcDbSymbolTableRecord
100
AcDbTextStyleTableRecord
  2
ANNOTATIVE
 70
     0
 40
0.0
 41
1.0
 50
0.0
 71
     0
 42
2.5
  3
arial.ttf
  4

  0
ENDTAB
  0
TABLE
  2
VIEW
  5
73
330
0
100
AcDbSymbolTable
 70
     0
  0
ENDTAB
  0
TABLE
  2
UCS
  5
74
330
0
100
AcDbSymbolTable
 70
     0
  0
ENDTAB
  0
TABLE
  2
APPID
  5
75
330
0
100
AcDbSymbolTable
 70
     2
  0
APPID
  5
76
330
75
100
AcDbSymbolTableRecord
100
AcDbRegAppTableRecord
  2
ACAD
 70
     0
  0
APPID
  5
77
330
75
100
AcDbSymbolTableRecord
100
AcDbRegAppTableRecord
  2
ACADANNOTATIVE
 70
     0
  0
ENDTAB
  0
TABLE
  2
DIMSTYLE
  5
78
330
0
100
AcDbSymbolTable
 70
     2
  0
DIMSTYLE
105
79
330
78
100
AcDbSymbolTableRecord
100
AcDbDimStyleTableRecord
  2
STANDARD
 70
     0
  3

  4

  5

  6

  7

 40
0.0
 41
2.5
 42
0.625
 43
3.75
 44
1.25
 45
0.0
 46
0.0
 47
0.0
 48
0.0
140
2.5
141
2.5
142
0.0
143
0.03937007874016
144
1.0
145
0.0
146
1.0
147
0.625
 71
     0
 72
     0
 73
     0
 74
     0
 75
     0
 76
     0
 77
     1
 78
     8
170
     0
171
     3
172
     1
173
     0
174
     0
175
     0
176
     0
177
     0
178
     0
270
     2
271
     2
272
     2
273
     2
274
     3
340
71
275
     0
280
     0
281
     0
282
     0
283
     0
284
     8
285
     0
286
     0
287
     3
288
     0
  0
ENDTAB
  0
TABLE
  2
BLOCK_RECORD
  5
A01
330
0
100
AcDbSymbolTable
  70
5
  0
BLOCK_RECORD
  5
A02
330
A01
100
AcDbSymbolTableRecord
100
AcDbBlockTableRecord
  2
*MODEL_SPACE
  0
BLOCK_RECORD
  5
A03
330
A01
100
AcDbSymbolTableRecord
100
AcDbBlockTableRecord
  2
*PAPER_SPACE
  0
ENDTAB
  0
ENDSEC
  0
SECTION
  2
BLOCKS
  0
BLOCK
  5
A04
330
A02
100
AcDbEntity
  8
0
100
AcDbBlockBegin
  2
*MODEL_SPACE
 70
   0
 10
0
 20
0
 30
0
  3
*MODEL_SPACE
  1
 
  0
ENDBLK
  5
A05
330
A02
100
AcDbEntity
  8
0
100
AcDbBlockEnd
  0
BLOCK
  5
A06
330
A03
100
AcDbEntity
 67
1
  8
0
100
AcDbBlockBegin
  2
*PAPER_SPACE
 70
   0
 10
0
 20
0
 30
0
  3
*PAPER_SPACE
  1
 
  0
ENDBLK
  5
A07
330
A03
100
AcDbEntity
 67
    1
  8
0
100
AcDbBlockEnd
  0
ENDSEC
  0
SECTION
  2
ENTITIES
  0
ARC
  5
A08
330
A02
100
AcDbEntity
  8
View
100
AcDbCircle
 10
99.998840836
 20
70.498840836
 30
0.000000000
 40
1.498841284
100
AcDbArc
 50
179.955688964
 51
-89.955688964
  0
LINE
  5
A09
330
A02
100
AcDbEntity
  8
View
100
AcDbLine
 10
100.000000000
 20
69.000000000
 30
0.000000000
 11
197.000000000
 21
69.000000000
 31
0.000000000
  0
ARC
  5
A0A
330
A02
100
AcDbEntity
  8
View
100
AcDbCircle
 10
197.001159164
 20
70.498840836
 30
0.000000000
 40
1.498841284
100
AcDbArc
 50
-90.044311036
 51
0.044311036
  0
LINE
  5
A0B
330
A02
100
AcDbEntity
  8
View
100
AcDbLine
 10
198.500000000
 20
70.500000000
 30
0.000000000
 11
198.500000000
 21
139.500000000
 31
0.000000000
  0
ARC
  5
A0C
330
A02
100
AcDbEntity
  8
View
100
AcDbCircle
 10
197.001159164
 20
139.501159164
 30
0.000000000
 40
1.498841284
100
AcDbArc
 50
-0.044311036
 51
90.044311036
  0
LINE
  5
A0D
330
A02
100
AcDbEntity
  8
View
100
AcDbLine
 10
197.000000000
 20
141.000000000
 30
0.000000000
 11
100.000000000
 21
141.000000000
 31
0.000000000
  0
ARC
  5
A0E
330
A02
100
AcDbEntity
  8
View
100
AcDbCircle
 10
99.998840836
 20
139.501159164
 30
0.000000000
 40
1.498841284
100
AcDbArc
 50
89.955688964
 51
-179.955688964
  0
LINE
  5
A0F
330
A02
100
AcDbEntity
  8
View
100
AcDbLine
 10
98.500000000
 20
139.500000000
 30
0.000000000
 11
98.500000000
 21
70.500000000
 31
0.000000000
  0
CIRCLE
  5
A10
330
A02
100
AcDbEntity
  8
View
100
AcDbCircle
 10
102.500000000
 20
77.500000000
 30
0.000000000
 40
0.500000000
  0
CIRCLE
  5
A11
330
A02
100
AcDbEntity
  8
View
100
AcDbCircle
 10
101.500000000
 20
72.000000000
 30
0.000000000
 40
1.600000000
  0
CIRCLE
  5
A12
330
A02
100
AcDbEntity
  8
View
100
AcDbCircle
 10
102.500000000
 20
85.120000000
 30
0.000000000
 40
0.500000000
  0
CIRCLE
  5
A13
330
A02
100
AcDbEntity
  8
View
100
AcDbCircle
 10
102.500000000
 20
80.040000000
 30
0.000000000
 40
0.500000000
  0
CIRCLE
  5
A14
330
A02
100
AcDbEntity
  8
View
100
AcDbCircle
 10
102.500000000
 20
82.580000000
 30
0.000000000
 40
0.500000000
  0
CIRCLE
  5
A15
330
A02
100
AcDbEntity
  8
View
100
AcDbCircle
 10
105.040000000
 20
80.040000000
 30
0.000000000
 40
0.500000000
  0
CIRCLE
  5
A16
330
A02
100
AcDbEntity
  8
View
100
AcDbCircle
 10
105.040000000
 20
77.500000000
 30
0.000000000
 40
0.500000000
  0
CIRCLE
  5
A17
330
A02
100
AcDbEntity
  8
View
100
AcDbCircle
 10
102.500000000
 20
87.660000000
 30
0.000000000
 40
0.500000000
  0
CIRCLE
  5
A18
330
A02
100
AcDbEntity
  8
View
100
AcDbCircle
 10
105.040000000
 20
82.580000000
 30
0.000000000
 40
0.500000000
  0
CIRCLE
  5
A19
330
A02
100
AcDbEntity
  8
View
100
AcDbCircle
 10
105.040000000
 20
85.120000000
 30
0.000000000
 40
0.500000000
  0
CIRCLE
  5
A1A
330
A02
100
AcDbEntity
  8
View
100
AcDbCircle
 10
102.500000000
 20
92.740000000
 30
0.000000000
 40
0.500000000
  0
CIRCLE
  5
A1B
330
A02
100
AcDbEntity
  8
View
100
AcDbCircle
 10
102.500000000
 20
90.200000000
 30
0.000000000
 40
0.500000000
  0
CIRCLE
  5
A1C
330
A02
100
AcDbEntity
  8
View
100
AcDbCircle
 10
102.500000000
 20
100.360000000
 30
0.000000000
 40
0.500000000
  0
CIRCLE
  5
A1D
330
A02
100
AcDbEntity
  8
View
100
AcDbCircle
 10
102.500000000
 20
95.280000000
 30
0.000000000
 40
0.500000000
  0
CIRCLE
  5
A1E
330
A02
100
AcDbEntity
  8
View
100
AcDbCircle
 10
102.500000000
 20
97.820000000
 30
0.000000000
 40
0.500000000
  0
CIRCLE
  5
A1F
330
A02
100
AcDbEntity
  8
View
100
AcDbCircle
 10
105.040000000
 20
90.200000000
 30
0.000000000
 40
0.500000000
  0
CIRCLE
  5
A20
330
A02
100
AcDbEntity
  8
View
100
AcDbCircle
 10
105.040000000
 20
87.660000000
 30
0.000000000
 40
0.500000000
  0
CIRCLE
  5
A21
330
A02
100
AcDbEntity
  8
View
100
AcDbCircle
 10
105.040000000
 20
97.820000000
 30
0.000000000
 40
0.500000000
  0
CIRCLE
  5
A22
330
A02
100
AcDbEntity
  8
View
100
AcDbCircle
 10
105.040000000
 20
92.740000000
 30
0.000000000
 40
0.500000000
  0
CIRCLE
  5
A23
330
A02
100
AcDbEntity
  8
View
100
AcDbCircle
 10
105.040000000
 20
95.280000000
 30
0.000000000
 40
0.500000000
  0
CIRCLE
  5
A24
330
A02
100
AcDbEntity
  8
View
100
AcDbCircle
 10
108.040000000
 20
71.500000000
 30
0.000000000
 40
0.500000000
  0
CIRCLE
  5
A25
330
A02
100
AcDbEntity
  8
View
100
AcDbCircle
 10
110.580000000
 20
71.500000000
 30
0.000000000
 40
0.500000000
  0
CIRCLE
  5
A26
330
A02
100
AcDbEntity
  8
View
100
AcDbCircle
 10
113.120000000
 20
71.500000000
 30
0.000000000
 40
0.500000000
  0
CIRCLE
  5
A27
330
A02
100
AcDbEntity
  8
View
100
AcDbCircle
 10
115.660000000
 20
71.500000000
 30
0.000000000
 40
0.500000000
  0
CIRCLE
  5
A28
330
A02
100
AcDbEntity
  8
View
100
AcDbCircle
 10
113.120000000
 20
74.040000000
 30
0.000000000
 40
0.500000000
  0
CIRCLE
  5
A29
330
A02
100
AcDbEntity
  8
View
100
AcDbCircle
 10
125.820000000
 20
71.500000000
 30
0.000000000
 40
0.500000000
  0
CIRCLE
  5
A2A
330
A02
100
AcDbEntity
  8
View
100
AcDbCircle
 10
128.360000000
 20
71.500000000
 30
0.000000000
 40
0.500000000
  0
CIRCLE
  5
A2B
330
A02
100
AcDbEntity
  8
View
100
AcDbCircle
 10
118.200000000
 20
71.500000000
 30
0.000000000
 40
0.500000000
  0
CIRCLE
  5
A2C
330
A02
100
AcDbEntity
  8
View
100
AcDbCircle
 10
123.280000000
 20
71.500000000
 30
0.000000000
 40
0.500000000
  0
CIRCLE
  5
A2D
330
A02
100
AcDbEntity
  8
View
100
AcDbCircle
 10
120.740000000
 20
71.500000000
 30
0.000000000
 40
0.500000000
  0
CIRCLE
  5
A2E
330
A02
100
AcDbEntity
  8
View
100
AcDbCircle
 10
108.040000000
 20
74.040000000
 30
0.000000000
 40
0.500000000
  0
CIRCLE
  5
A2F
330
A02
100
AcDbEntity
  8
View
100
AcDbCircle
 10
110.580000000
 20
74.040000000
 30
0.000000000
 40
0.500000000
  0
CIRCLE
  5
A30
330
A02
100
AcDbEntity
  8
View
100
AcDbCircle
 10
105.040000000
 20
100.360000000
 30
0.000000000
 40
0.500000000
  0
CIRCLE
  5
A31
330
A02
100
AcDbEntity
  8
View
100
AcDbCircle
 10
115.660000000
 20
74.040000000
 30
0.000000000
 40
0.500000000
  0
CIRCLE
  5
A32
330
A02
100
AcDbEntity
  8
View
100
AcDbCircle
 10
111.400000000
 20
79.000000000
 30
0.000000000
 40
1.500000000
  0
CIRCLE
  5
A33
330
A02
100
AcDbEntity
  8
View
100
AcDbCircle
 10
118.200000000
 20
74.040000000
 30
0.000000000
 40
0.500000000
  0
CIRCLE
  5
A34
330
A02
100
AcDbEntity
  8
View
100
AcDbCircle
 10
123.280000000
 20
74.040000000
 30
0.000000000
 40
0.500000000
  0
CIRCLE
  5
A35
330
A02
100
AcDbEntity
  8
View
100
AcDbCircle
 10
120.740000000
 20
74.040000000
 30
0.000000000
 40
0.500000000
  0
CIRCLE
  5
A36
330
A02
100
AcDbEntity
  8
View
100
AcDbCircle
 10
120.500000000
 20
81.500000000
 30
0.000000000
 40
0.800000000
  0
CIRCLE
  5
A37
330
A02
100
AcDbEntity
  8
View
100
AcDbCircle
 10
128.360000000
 20
74.040000000
 30
0.000000000
 40
0.500000000
  0
CIRCLE
  5
A38
330
A02
100
AcDbEntity
  8
View
100
AcDbCircle
 10
125.820000000
 20
74.040000000
 30
0.000000000
 40
0.500000000
  0
CIRCLE
  5
A39
330
A02
100
AcDbEntity
  8
View
100
AcDbCircle
 10
102.500000000
 20
105.440000000
 30
0.000000000
 40
0.500000000
  0
CIRCLE
  5
A3A
330
A02
100
AcDbEntity
  8
View
100
AcDbCircle
 10
102.500000000
 20
102.900000000
 30
0.000000000
 40
0.500000000
  0
CIRCLE
  5
A3B
330
A02
100
AcDbEntity
  8
View
100
AcDbCircle
 10
102.500000000
 20
121.920000000
 30
0.000000000
 40
0.500000000
  0
CIRCLE
  5
A3C
330
A02
100
AcDbEntity
  8
View
100
AcDbCircle
 10
102.500000000
 20
114.300000000
 30
0.000000000
 40
0.500000000
  0
CIRCLE
  5
A3D
330
A02
100
AcDbEntity
  8
View
100
AcDbCircle
 10
102.500000000
 20
119.380000000
 30
0.000000000
 40
0.500000000
  0
CIRCLE
  5
A3E
330
A02
100
AcDbEntity
  8
View
100
AcDbCircle
 10
105.040000000
 20
105.440000000
 30
0.000000000
 40
0.500000000
  0
CIRCLE
  5
A3F
330
A02
100
AcDbEntity
  8
View
100
AcDbCircle
 10
105.040000000
 20
102.900000000
 30
0.000000000
 40
0.500000000
  0
CIRCLE
  5
A40
330
A02
100
AcDbEntity
  8
View
100
AcDbCircle
 10
102.500000000
 20
116.840000000
 30
0.000000000
 40
0.500000000
  0
CIRCLE
  5
A41
330
A02
100
AcDbEntity
  8
View
100
AcDbCircle
 10
104.000000000
 20
110.000000000
 30
0.000000000
 40
1.500000000
  0
CIRCLE
  5
A42
330
A02
100
AcDbEntity
  8
View
100
AcDbCircle
 10
106.900000000
 20
113.700000000
 30
0.000000000
 40
0.450000000
  0
CIRCLE
  5
A43
330
A02
100
AcDbEntity
  8
View
100
AcDbCircle
 10
102.500000000
 20
127.000000000
 30
0.000000000
 40
0.500000000
  0
CIRCLE
  5
A44
330
A02
100
AcDbEntity
  8
View
100
AcDbCircle
 10
102.500000000
 20
124.460000000
 30
0.000000000
 40
0.500000000
  0
CIRCLE
  5
A45
330
A02
100
AcDbEntity
  8
View
100
AcDbCircle
 10
101.500000000
 20
138.000000000
 30
0.000000000
 40
1.600000000
  0
CIRCLE
  5
A46
330
A02
100
AcDbEntity
  8
View
100
AcDbCircle
 10
104.925000000
 20
129.652000000
 30
0.000000000
 40
0.800000000
  0
CIRCLE
  5
A47
330
A02
100
AcDbEntity
  8
View
100
AcDbCircle
 10
105.915000000
 20
137.272000000
 30
0.000000000
 40
0.600000000
  0
CIRCLE
  5
A48
330
A02
100
AcDbEntity
  8
View
100
AcDbCircle
 10
106.985000000
 20
126.350000000
 30
0.000000000
 40
0.450000000
  0
CIRCLE
  5
A49
330
A02
100
AcDbEntity
  8
View
100
AcDbCircle
 10
108.255000000
 20
123.810000000
 30
0.000000000
 40
0.450000000
  0
CIRCLE
  5
A4A
330
A02
100
AcDbEntity
  8
View
100
AcDbCircle
 10
105.915000000
 20
135.240000000
 30
0.000000000
 40
0.600000000
  0
CIRCLE
  5
A4B
330
A02
100
AcDbEntity
  8
View
100
AcDbCircle
 10
109.525000000
 20
126.350000000
 30
0.000000000
 40
0.450000000
  0
CIRCLE
  5
A4C
330
A02
100
AcDbEntity
  8
View
100
AcDbCircle
 10
106.985000000
 20
132.700000000
 30
0.000000000
 40
1.625000000
  0
CIRCLE
  5
A4D
330
A02
100
AcDbEntity
  8
View
100
AcDbCircle
 10
109.600000000
 20
110.000000000
 30
0.000000000
 40
0.550000000
  0
CIRCLE
  5
A4E
330
A02
100
AcDbEntity
  8
View
100
AcDbCircle
 10
110.795000000
 20
123.810000000
 30
0.000000000
 40
0.450000000
  0
CIRCLE
  5
A4F
330
A02
100
AcDbEntity
  8
View
100
AcDbCircle
 10
113.335000000
 20
123.810000000
 30
0.000000000
 40
0.450000000
  0
CIRCLE
  5
A50
330
A02
100
AcDbEntity
  8
View
100
AcDbCircle
 10
118.415000000
 20
123.810000000
 30
0.000000000
 40
0.450000000
  0
CIRCLE
  5
A51
330
A02
100
AcDbEntity
  8
View
100
AcDbCircle
 10
115.875000000
 20
123.810000000
 30
0.000000000
 40
0.450000000
  0
CIRCLE
  5
A52
330
A02
100
AcDbEntity
  8
View
100
AcDbCircle
 10
120.500000000
 20
101.500000000
 30
0.000000000
 40
0.550000000
  0
CIRCLE
  5
A53
330
A02
100
AcDbEntity
  8
View
100
AcDbCircle
 10
126.100000000
 20
123.020000000
 30
0.000000000
 40
0.350000000
  0
CIRCLE
  5
A54
330
A02
100
AcDbEntity
  8
View
100
AcDbCircle
 10
123.530000000
 20
124.040000000
 30
0.000000000
 40
1.150000000
  0
CIRCLE
  5
A55
330
A02
100
AcDbEntity
  8
View
100
AcDbCircle
 10
128.100000000
 20
123.020000000
 30
0.000000000
 40
0.350000000
  0
CIRCLE
  5
A56
330
A02
100
AcDbEntity
  8
View
100
AcDbCircle
 10
126.600000000
 20
124.520000000
 30
0.000000000
 40
0.350000000
  0
CIRCLE
  5
A57
330
A02
100
AcDbEntity
  8
View
100
AcDbCircle
 10
112.065000000
 20
126.350000000
 30
0.000000000
 40
0.450000000
  0
CIRCLE
  5
A58
330
A02
100
AcDbEntity
  8
View
100
AcDbCircle
 10
114.605000000
 20
126.350000000
 30
0.000000000
 40
0.450000000
  0
CIRCLE
  5
A59
330
A02
100
AcDbEntity
  8
View
100
AcDbCircle
 10
117.145000000
 20
126.350000000
 30
0.000000000
 40
0.450000000
  0
CIRCLE
  5
A5A
330
A02
100
AcDbEntity
  8
View
100
AcDbCircle
 10
118.415000000
 20
132.700000000
 30
0.000000000
 40
1.625000000
  0
CIRCLE
  5
A5B
330
A02
100
AcDbEntity
  8
View
100
AcDbCircle
 10
119.485000000
 20
137.272000000
 30
0.000000000
 40
0.600000000
  0
CIRCLE
  5
A5C
330
A02
100
AcDbEntity
  8
View
100
AcDbCircle
 10
126.100000000
 20
126.220000000
 30
0.000000000
 40
0.350000000
  0
CIRCLE
  5
A5D
330
A02
100
AcDbEntity
  8
View
100
AcDbCircle
 10
128.100000000
 20
126.220000000
 30
0.000000000
 40
0.350000000
  0
CIRCLE
  5
A5E
330
A02
100
AcDbEntity
  8
View
100
AcDbCircle
 10
126.600000000
 20
127.720000000
 30
0.000000000
 40
0.350000000
  0
CIRCLE
  5
A5F
330
A02
100
AcDbEntity
  8
View
100
AcDbCircle
 10
119.485000000
 20
135.240000000
 30
0.000000000
 40
0.600000000
  0
CIRCLE
  5
A60
330
A02
100
AcDbEntity
  8
View
100
AcDbCircle
 10
120.475000000
 20
129.652000000
 30
0.000000000
 40
0.800000000
  0
CIRCLE
  5
A61
330
A02
100
AcDbEntity
  8
View
100
AcDbCircle
 10
123.530000000
 20
129.720000000
 30
0.000000000
 40
1.150000000
  0
CIRCLE
  5
A62
330
A02
100
AcDbEntity
  8
View
100
AcDbCircle
 10
141.060000000
 20
71.500000000
 30
0.000000000
 40
0.500000000
  0
CIRCLE
  5
A63
330
A02
100
AcDbEntity
  8
View
100
AcDbCircle
 10
143.600000000
 20
71.500000000
 30
0.000000000
 40
0.500000000
  0
CIRCLE
  5
A64
330
A02
100
AcDbEntity
  8
View
100
AcDbCircle
 10
130.900000000
 20
71.500000000
 30
0.000000000
 40
0.500000000
  0
CIRCLE
  5
A65
330
A02
100
AcDbEntity
  8
View
100
AcDbCircle
 10
135.980000000
 20
71.500000000
 30
0.000000000
 40
0.500000000
  0
CIRCLE
  5
A66
330
A02
100
AcDbEntity
  8
View
100
AcDbCircle
 10
133.440000000
 20
71.500000000
 30
0.000000000
 40
0.500000000
  0
CIRCLE
  5
A67
330
A02
100
AcDbEntity
  8
View
100
AcDbCircle
 10
153.760000000
 20
71.500000000
 30
0.000000000
 40
0.500000000
  0
CIRCLE
  5
A68
330
A02
100
AcDbEntity
  8
View
100
AcDbCircle
 10
156.300000000
 20
71.500000000
 30
0.000000000
 40
0.500000000
  0
CIRCLE
  5
A69
330
A02
100
AcDbEntity
  8
View
100
AcDbCircle
 10
146.140000000
 20
71.500000000
 30
0.000000000
 40
0.500000000
  0
CIRCLE
  5
A6A
330
A02
100
AcDbEntity
  8
View
100
AcDbCircle
 10
151.220000000
 20
71.500000000
 30
0.000000000
 40
0.500000000
  0
CIRCLE
  5
A6B
330
A02
100
AcDbEntity
  8
View
100
AcDbCircle
 10
148.680000000
 20
71.500000000
 30
0.000000000
 40
0.500000000
  0
CIRCLE
  5
A6C
330
A02
100
AcDbEntity
  8
View
100
AcDbCircle
 10
141.060000000
 20
74.040000000
 30
0.000000000
 40
0.500000000
  0
CIRCLE
  5
A6D
330
A02
100
AcDbEntity
  8
View
100
AcDbCircle
 10
143.600000000
 20
74.040000000
 30
0.000000000
 40
0.500000000
  0
CIRCLE
  5
A6E
330
A02
100
AcDbEntity
  8
View
100
AcDbCircle
 10
130.900000000
 20
74.040000000
 30
0.000000000
 40
0.500000000
  0
CIRCLE
  5
A6F
330
A02
100
AcDbEntity
  8
View
100
AcDbCircle
 10
135.980000000
 20
74.040000000
 30
0.000000000
 40
0.500000000
  0
CIRCLE
  5
A70
330
A02
100
AcDbEntity
  8
View
100
AcDbCircle
 10
133.440000000
 20
74.040000000
 30
0.000000000
 40
0.500000000
  0
CIRCLE
  5
A71
330
A02
100
AcDbEntity
  8
View
100
AcDbCircle
 10
146.140000000
 20
74.040000000
 30
0.000000000
 40
0.500000000
  0
CIRCLE
  5
A72
330
A02
100
AcDbEntity
  8
View
100
AcDbCircle
 10
148.680000000
 20
74.040000000
 30
0.000000000
 40
0.500000000
  0
CIRCLE
  5
A73
330
A02
100
AcDbEntity
  8
View
100
AcDbCircle
 10
149.000000000
 20
91.500000000
 30
0.000000000
 40
1.500000000
  0
CIRCLE
  5
A74
330
A02
100
AcDbEntity
  8
View
100
AcDbCircle
 10
153.760000000
 20
74.040000000
 30
0.000000000
 40
0.500000000
  0
CIRCLE
  5
A75
330
A02
100
AcDbEntity
  8
View
100
AcDbCircle
 10
151.220000000
 20
74.040000000
 30
0.000000000
 40
0.500000000
  0
CIRCLE
  5
A76
330
A02
100
AcDbEntity
  8
View
100
AcDbCircle
 10
166.460000000
 20
71.500000000
 30
0.000000000
 40
0.500000000
  0
CIRCLE
  5
A77
330
A02
100
AcDbEntity
  8
View
100
AcDbCircle
 10
169.000000000
 20
71.500000000
 30
0.000000000
 40
0.500000000
  0
CIRCLE
  5
A78
330
A02
100
AcDbEntity
  8
View
100
AcDbCircle
 10
158.840000000
 20
71.500000000
 30
0.000000000
 40
0.500000000
  0
CIRCLE
  5
A79
330
A02
100
AcDbEntity
  8
View
100
AcDbCircle
 10
163.920000000
 20
71.500000000
 30
0.000000000
 40
0.500000000
  0
CIRCLE
  5
A7A
330
A02
100
AcDbEntity
  8
View
100
AcDbCircle
 10
161.380000000
 20
71.500000000
 30
0.000000000
 40
0.500000000
  0
CIRCLE
  5
A7B
330
A02
100
AcDbEntity
  8
View
100
AcDbCircle
 10
191.625000000
 20
72.000000000
 30
0.000000000
 40
0.450000000
  0
CIRCLE
  5
A7C
330
A02
100
AcDbEntity
  8
View
100
AcDbCircle
 10
195.500000000
 20
72.000000000
 30
0.000000000
 40
1.600000000
  0
CIRCLE
  5
A7D
330
A02
100
AcDbEntity
  8
View
100
AcDbCircle
 10
173.375000000
 20
72.000000000
 30
0.000000000
 40
0.450000000
  0
CIRCLE
  5
A7E
330
A02
100
AcDbEntity
  8
View
100
AcDbCircle
 10
187.375000000
 20
72.000000000
 30
0.000000000
 40
0.450000000
  0
CIRCLE
  5
A7F
330
A02
100
AcDbEntity
  8
View
100
AcDbCircle
 10
177.625000000
 20
72.000000000
 30
0.000000000
 40
0.450000000
  0
CIRCLE
  5
A80
330
A02
100
AcDbEntity
  8
View
100
AcDbCircle
 10
156.300000000
 20
74.040000000
 30
0.000000000
 40
0.500000000
  0
CIRCLE
  5
A81
330
A02
100
AcDbEntity
  8
View
100
AcDbCircle
 10
158.840000000
 20
74.040000000
 30
0.000000000
 40
0.500000000
  0
CIRCLE
  5
A82
330
A02
100
AcDbEntity
  8
View
100
AcDbCircle
 10
161.380000000
 20
74.040000000
 30
0.000000000
 40
0.500000000
  0
CIRCLE
  5
A83
330
A02
100
AcDbEntity
  8
View
100
AcDbCircle
 10
163.920000000
 20
74.040000000
 30
0.000000000
 40
0.500000000
  0
CIRCLE
  5
A84
330
A02
100
AcDbEntity
  8
View
100
AcDbCircle
 10
161.000000000
 20
91.500000000
 30
0.000000000
 40
1.500000000
  0
CIRCLE
  5
A85
330
A02
100
AcDbEntity
  8
View
100
AcDbCircle
 10
166.460000000
 20
74.040000000
 30
0.000000000
 40
0.500000000
  0
CIRCLE
  5
A86
330
A02
100
AcDbEntity
  8
View
100
AcDbCircle
 10
169.000000000
 20
74.040000000
 30
0.000000000
 40
0.500000000
  0
CIRCLE
  5
A87
330
A02
100
AcDbEntity
  8
View
100
AcDbCircle
 10
183.700000000
 20
76.875000000
 30
0.000000000
 40
0.500000000
  0
CIRCLE
  5
A88
330
A02
100
AcDbEntity
  8
View
100
AcDbCircle
 10
171.000000000
 20
91.500000000
 30
0.000000000
 40
1.500000000
  0
CIRCLE
  5
A89
330
A02
100
AcDbEntity
  8
View
100
AcDbCircle
 10
176.600000000
 20
79.000000000
 30
0.000000000
 40
1.500000000
  0
CIRCLE
  5
A8A
330
A02
100
AcDbEntity
  8
View
100
AcDbCircle
 10
183.700000000
 20
103.125000000
 30
0.000000000
 40
0.500000000
  0
CIRCLE
  5
A8B
330
A02
100
AcDbEntity
  8
View
100
AcDbCircle
 10
130.100000000
 20
123.020000000
 30
0.000000000
 40
0.350000000
  0
CIRCLE
  5
A8C
330
A02
100
AcDbEntity
  8
View
100
AcDbCircle
 10
132.100000000
 20
123.020000000
 30
0.000000000
 40
0.350000000
  0
CIRCLE
  5
A8D
330
A02
100
AcDbEntity
  8
View
100
AcDbCircle
 10
129.100000000
 20
124.520000000
 30
0.000000000
 40
0.350000000
  0
CIRCLE
  5
A8E
330
A02
100
AcDbEntity
  8
View
100
AcDbCircle
 10
131.100000000
 20
124.520000000
 30
0.000000000
 40
0.350000000
  0
CIRCLE
  5
A8F
330
A02
100
AcDbEntity
  8
View
100
AcDbCircle
 10
130.100000000
 20
126.220000000
 30
0.000000000
 40
0.350000000
  0
CIRCLE
  5
A90
330
A02
100
AcDbEntity
  8
View
100
AcDbCircle
 10
134.100000000
 20
123.020000000
 30
0.000000000
 40
0.350000000
  0
CIRCLE
  5
A91
330
A02
100
AcDbEntity
  8
View
100
AcDbCircle
 10
136.670000000
 20
124.040000000
 30
0.000000000
 40
1.150000000
  0
CIRCLE
  5
A92
330
A02
100
AcDbEntity
  8
View
100
AcDbCircle
 10
132.100000000
 20
126.220000000
 30
0.000000000
 40
0.350000000
  0
CIRCLE
  5
A93
330
A02
100
AcDbEntity
  8
View
100
AcDbCircle
 10
133.600000000
 20
124.520000000
 30
0.000000000
 40
0.350000000
  0
CIRCLE
  5
A94
330
A02
100
AcDbEntity
  8
View
100
AcDbCircle
 10
134.100000000
 20
126.220000000
 30
0.000000000
 40
0.350000000
  0
CIRCLE
  5
A95
330
A02
100
AcDbEntity
  8
View
100
AcDbCircle
 10
129.100000000
 20
127.720000000
 30
0.000000000
 40
0.350000000
  0
CIRCLE
  5
A96
330
A02
100
AcDbEntity
  8
View
100
AcDbCircle
 10
131.100000000
 20
127.720000000
 30
0.000000000
 40
0.350000000
  0
CIRCLE
  5
A97
330
A02
100
AcDbEntity
  8
View
100
AcDbCircle
 10
133.600000000
 20
127.720000000
 30
0.000000000
 40
0.350000000
  0
CIRCLE
  5
A98
330
A02
100
AcDbEntity
  8
View
100
AcDbCircle
 10
136.670000000
 20
129.720000000
 30
0.000000000
 40
1.150000000
  0
CIRCLE
  5
A99
330
A02
100
AcDbEntity
  8
View
100
AcDbCircle
 10
137.575000000
 20
138.000000000
 30
0.000000000
 40
0.450000000
  0
ARC
  5
A9A
330
A02
100
AcDbEntity
  8
View
100
AcDbCircle
 10
143.179999540
 20
135.897498920
 30
0.000000000
 40
0.249999500
100
AcDbArc
 50
0.000000000
 51
180.000000000
  0
LINE
  5
A9B
330
A02
100
AcDbEntity
  8
View
100
AcDbLine
 10
143.429999040
 20
135.097500520
 30
0.000000000
 11
143.429999040
 21
135.897498920
 31
0.000000000
  0
ARC
  5
A9C
330
A02
100
AcDbEntity
  8
View
100
AcDbCircle
 10
143.179999540
 20
135.097500520
 30
0.000000000
 40
0.249999500
100
AcDbArc
 50
180.000000000
 51
0.000000000
  0
LINE
  5
A9D
330
A02
100
AcDbEntity
  8
View
100
AcDbLine
 10
142.930000040
 20
135.897498920
 30
0.000000000
 11
142.930000040
 21
135.097500520
 31
0.000000000
  0
CIRCLE
  5
A9E
330
A02
100
AcDbEntity
  8
View
100
AcDbCircle
 10
150.390000000
 20
135.997000000
 30
0.000000000
 40
0.325000000
  0
CIRCLE
  5
A9F
330
A02
100
AcDbEntity
  8
View
100
AcDbCircle
 10
141.825000000
 20
138.000000000
 30
0.000000000
 40
0.450000000
  0
CIRCLE
  5
AA0
330
A02
100
AcDbEntity
  8
View
100
AcDbCircle
 10
144.610000000
 20
135.997000000
 30
0.000000000
 40
0.325000000
  0
ARC
  5
AA1
330
A02
100
AcDbEntity
  8
View
100
AcDbCircle
 10
143.179999540
 20
139.927498480
 30
0.000000000
 40
0.249999500
100
AcDbArc
 50
0.000000000
 51
180.000000000
  0
LINE
  5
AA2
330
A02
100
AcDbEntity
  8
View
100
AcDbLine
 10
143.429999040
 20
139.427499480
 30
0.000000000
 11
143.429999040
 21
139.927498480
 31
0.000000000
  0
ARC
  5
AA3
330
A02
100
AcDbEntity
  8
View
100
AcDbCircle
 10
143.179999540
 20
139.427499480
 30
0.000000000
 40
0.249999500
100
AcDbArc
 50
180.000000000
 51
0.000000000
  0
LINE
  5
AA4
330
A02
100
AcDbEntity
  8
View
100
AcDbLine
 10
142.930000040
 20
139.927498480
 30
0.000000000
 11
142.930000040
 21
139.427499480
 31
0.000000000
  0
CIRCLE
  5
AA5
330
A02
100
AcDbEntity
  8
View
100
AcDbCircle
 10
178.400000000
 20
110.000000000
 30
0.000000000
 40
0.800000000
  0
CIRCLE
  5
AA6
330
A02
100
AcDbEntity
  8
View
100
AcDbCircle
 10
184.000000000
 20
110.000000000
 30
0.000000000
 40
1.500000000
  0
ARC
  5
AA7
330
A02
100
AcDbEntity
  8
View
100
AcDbCircle
 10
157.049999740
 20
132.150000700
 30
0.000000000
 40
0.449999100
100
AcDbArc
 50
0.000000000
 51
-180.000000000
  0
LINE
  5
AA8
330
A02
100
AcDbEntity
  8
View
100
AcDbLine
 10
157.499998840
 20
130.749998420
 30
0.000000000
 11
157.499998840
 21
132.150000700
 31
0.000000000
  0
ARC
  5
AA9
330
A02
100
AcDbEntity
  8
View
100
AcDbCircle
 10
157.049999740
 20
130.749998420
 30
0.000000000
 40
0.449999100
100
AcDbArc
 50
-180.000000000
 51
0.000000000
  0
LINE
  5
AAA
330
A02
100
AcDbEntity
  8
View
100
AcDbLine
 10
156.600000640
 20
132.150000700
 30
0.000000000
 11
156.600000640
 21
130.749998420
 31
0.000000000
  0
CIRCLE
  5
AAB
330
A02
100
AcDbEntity
  8
View
100
AcDbCircle
 10
191.960000000
 20
127.460000000
 30
0.000000000
 40
0.500000000
  0
ARC
  5
AAC
330
A02
100
AcDbEntity
  8
View
100
AcDbCircle
 10
171.550001220
 20
132.150000700
 30
0.000000000
 40
0.449999100
100
AcDbArc
 50
0.000000000
 51
-180.000000000
  0
LINE
  5
AAD
330
A02
100
AcDbEntity
  8
View
100
AcDbLine
 10
172.000000320
 20
130.749998420
 30
0.000000000
 11
172.000000320
 21
132.150000700
 31
0.000000000
  0
ARC
  5
AAE
330
A02
100
AcDbEntity
  8
View
100
AcDbCircle
 10
171.550001220
 20
130.749998420
 30
0.000000000
 40
0.449999100
100
AcDbArc
 50
-180.000000000
 51
0.000000000
  0
LINE
  5
AAF
330
A02
100
AcDbEntity
  8
View
100
AcDbLine
 10
171.100002120
 20
132.150000700
 30
0.000000000
 11
171.100002120
 21
130.749998420
 31
0.000000000
  0
CIRCLE
  5
AB0
330
A02
100
AcDbEntity
  8
View
100
AcDbCircle
 10
191.960000000
 20
106.500000000
 30
0.000000000
 40
0.500000000
  0
CIRCLE
  5
AB1
330
A02
100
AcDbEntity
  8
View
100
AcDbCircle
 10
194.500000000
 20
106.500000000
 30
0.000000000
 40
0.500000000
  0
CIRCLE
  5
AB2
330
A02
100
AcDbEntity
  8
View
100
AcDbCircle
 10
191.960000000
 20
130.000000000
 30
0.000000000
 40
0.500000000
  0
CIRCLE
  5
AB3
330
A02
100
AcDbEntity
  8
View
100
AcDbCircle
 10
194.500000000
 20
127.460000000
 30
0.000000000
 40
0.500000000
  0
CIRCLE
  5
AB4
330
A02
100
AcDbEntity
  8
View
100
AcDbCircle
 10
194.500000000
 20
130.000000000
 30
0.000000000
 40
0.500000000
  0
ARC
  5
AB5
330
A02
100
AcDbEntity
  8
View
100
AcDbCircle
 10
151.819997500
 20
135.897498920
 30
0.000000000
 40
0.249999500
100
AcDbArc
 50
0.000000000
 51
180.000000000
  0
LINE
  5
AB6
330
A02
100
AcDbEntity
  8
View
100
AcDbLine
 10
152.069997000
 20
135.097500520
 30
0.000000000
 11
152.069997000
 21
135.897498920
 31
0.000000000
  0
ARC
  5
AB7
330
A02
100
AcDbEntity
  8
View
100
AcDbCircle
 10
151.819997500
 20
135.097500520
 30
0.000000000
 40
0.249999500
100
AcDbArc
 50
180.000000000
 51
0.000000000
  0
LINE
  5
AB8
330
A02
100
AcDbEntity
  8
View
100
AcDbLine
 10
151.569998000
 20
135.897498920
 30
0.000000000
 11
151.569998000
 21
135.097500520
 31
0.000000000
  0
ARC
  5
AB9
330
A02
100
AcDbEntity
  8
View
100
AcDbCircle
 10
157.049999740
 20
137.659999840
 30
0.000000000
 40
0.449999100
100
AcDbArc
 50
0.000000000
 51
-180.000000000
  0
LINE
  5
ABA
330
A02
100
AcDbEntity
  8
View
100
AcDbLine
 10
157.499998840
 20
137.160000840
 30
0.000000000
 11
157.499998840
 21
137.659999840
 31
0.000000000
  0
ARC
  5
ABB
330
A02
100
AcDbEntity
  8
View
100
AcDbCircle
 10
157.049999740
 20
137.160000840
 30
0.000000000
 40
0.449999100
100
AcDbArc
 50
-180.000000000
 51
0.000000000
  0
LINE
  5
ABC
330
A02
100
AcDbEntity
  8
View
100
AcDbLine
 10
156.600000640
 20
137.659999840
 30
0.000000000
 11
156.600000640
 21
137.160000840
 31
0.000000000
  0
ARC
  5
ABD
330
A02
100
AcDbEntity
  8
View
100
AcDbCircle
 10
151.819997500
 20
139.927498480
 30
0.000000000
 40
0.249999500
100
AcDbArc
 50
0.000000000
 51
180.000000000
  0
LINE
  5
ABE
330
A02
100
AcDbEntity
  8
View
100
AcDbLine
 10
152.069997000
 20
139.427499480
 30
0.000000000
 11
152.069997000
 21
139.927498480
 31
0.000000000
  0
ARC
  5
ABF
330
A02
100
AcDbEntity
  8
View
100
AcDbCircle
 10
151.819997500
 20
139.427499480
 30
0.000000000
 40
0.249999500
100
AcDbArc
 50
180.000000000
 51
0.000000000
  0
LINE
  5
AC0
330
A02
100
AcDbEntity
  8
View
100
AcDbLine
 10
151.569998000
 20
139.927498480
 30
0.000000000
 11
151.569998000
 21
139.427499480
 31
0.000000000
  0
CIRCLE
  5
AC1
330
A02
100
AcDbEntity
  8
View
100
AcDbCircle
 10
167.800000000
 20
138.260000000
 30
0.000000000
 40
0.375000000
  0
CIRCLE
  5
AC2
330
A02
100
AcDbEntity
  8
View
100
AcDbCircle
 10
159.300000000
 20
138.260000000
 30
0.000000000
 40
0.375000000
  0
CIRCLE
  5
AC3
330
A02
100
AcDbEntity
  8
View
100
AcDbCircle
 10
177.750000000
 20
136.400000000
 30
0.000000000
 40
1.200000000
  0
CIRCLE
  5
AC4
330
A02
100
AcDbEntity
  8
View
100
AcDbCircle
 10
185.550000000
 20
135.500000000
 30
0.000000000
 40
0.600000000
  0
CIRCLE
  5
AC5
330
A02
100
AcDbEntity
  8
View
100
AcDbCircle
 10
182.050000000
 20
135.500000000
 30
0.000000000
 40
0.600000000
  0
ARC
  5
AC6
330
A02
100
AcDbEntity
  8
View
100
AcDbCircle
 10
171.550001220
 20
137.659999840
 30
0.000000000
 40
0.449999100
100
AcDbArc
 50
0.000000000
 51
-180.000000000
  0
LINE
  5
AC7
330
A02
100
AcDbEntity
  8
View
100
AcDbLine
 10
172.000000320
 20
137.160000840
 30
0.000000000
 11
172.000000320
 21
137.659999840
 31
0.000000000
  0
ARC
  5
AC8
330
A02
100
AcDbEntity
  8
View
100
AcDbCircle
 10
171.550001220
 20
137.160000840
 30
0.000000000
 40
0.449999100
100
AcDbArc
 50
-180.000000000
 51
0.000000000
  0
LINE
  5
AC9
330
A02
100
AcDbEntity
  8
View
100
AcDbLine
 10
171.100002120
 20
137.659999840
 30
0.000000000
 11
171.100002120
 21
137.160000840
 31
0.000000000
  0
CIRCLE
  5
ACA
330
A02
100
AcDbEntity
  8
View
100
AcDbCircle
 10
189.850000000
 20
136.400000000
 30
0.000000000
 40
1.200000000
  0
CIRCLE
  5
ACB
330
A02
100
AcDbEntity
  8
View
100
AcDbCircle
 10
195.500000000
 20
138.000000000
 30
0.000000000
 40
1.600000000
  0
ENDSEC
  0
SECTION
  2
OBJECTS
  0
DICTIONARY
  5
F000
330
0
100
AcDbDictionary
  3
ACAD_GROUP
350
F001
  0
DICTIONARY
  5
F001
330
F000
100
AcDbDictionary
  0
ENDSEC
  0
EOF